# File created by Blade
# Date/Time:  Tue Jan 27 18:35:12 2015
#---------------------------------------------------------
:version 1.10
:name HOM
:units
  mass 1.0
  length 1.000000
  angle deg
:documentation
     Acclaim Skeleton File
:root
   axis xyz
   order TX TY TZ RX RY RZ
   position 0.000000 0.000000 0.000000
   orientation 0 0 0
:bonedata
   begin
      id 1
      name Spine_dum
      direction 0.000000 1.000000 0.000000
      length 5.195262
      axis 0.0 0.0 0.0 xyz
   end
   begin
      id 2
      name LeftUpLeg_dum
      direction 1.000000 0.000000 0.000000
      length 3.351363
      axis 0.0 0.0 0.0 xyz
   end
   begin
      id 3
      name RightUpLeg_dum
      direction -1.000000 0.000000 0.000000
      length 3.351363
      axis 0.0 0.0 0.0 xyz
   end
   begin
      id 4
      name Spine
      direction 0.000000 1.000000 0.000000
      length 0.000000
      axis 0.0 0.0 0.0 xyz
      dof rx ry rz
   end
   begin
      id 5
      name Spine_dum1
      direction 0.000000 1.000000 0.000000
      length 15.653875
      axis 0.0 0.0 0.0 xyz
   end
   begin
      id 6
      name Spine_dum2
      direction 0.000000 1.000000 0.000000
      length 10.329768
      axis 0.0 0.0 0.0 xyz
   end
   begin
      id 7
      name Spine_dum3
      direction 0.000000 1.000000 0.000000
      length 10.329768
      axis 0.0 0.0 0.0 xyz
   end
   begin
      id 8
      name Head
      direction 0.000000 1.000000 0.000000
      length 4.527550
      axis 0.0 0.0 0.0 xyz
      dof rx ry rz
   end
   begin
      id 9
      name LeftShoulder
      direction 1.000000 0.000000 0.000000
      length 6.996006
      axis 0.0 0.0 -90.0 xyz
      dof rx ry rz
   end
   begin
      id 10
      name LeftArm
      direction 1.000000 0.000000 0.000000
      length 10.209302
      axis 0.0 0.0 -90.0 xyz
      dof rx ry rz
   end
   begin
      id 11
      name LeftForeArm
      direction 1.000000 0.000000 0.000000
      length 8.563163
      axis 0.0 0.0 -90.0 xyz
      dof ry rz rx
   end
   begin
      id 12
      name LeftHand
      direction 0.000000 0.000000 0.000000
      length 0.000000
      axis 0.0 0.0 -90.0 xyz
      dof rx ry rz
   end
   begin
      id 13
      name LeftHand_dum1
      direction 0.000000 0.000000 0.000000
      length 0.000000
      axis 0.0 0.0 -90.0 xyz
   end
   begin
      id 14
      name LeftHand_dum2
      direction 1.000000 0.000000 0.000000
      length 3.937000
      axis 0.0 0.0 -90.0 xyz
   end
   begin
      id 15
      name LeftHandThumb1
      direction 0.000000 0.000000 1.000000
      length 3.937000
      axis 0.0 0.0 -90.0 xyz
      dof rx rz ry
   end
   begin
      id 16
      name RightShoulder
      direction -1.000000 0.000000 0.000000
      length 6.996006
      axis 0.0 0.0 90.0 xyz
      dof rx ry rz
   end
   begin
      id 17
      name RightArm
      direction -1.000000 0.000000 0.000000
      length 10.209302
      axis 0.0 0.0 90.0 xyz
      dof rx ry rz
   end
   begin
      id 18
      name RightForeArm
      direction -1.000000 0.000000 0.000000
      length 8.563163
      axis 0.0 0.0 90.0 xyz
      dof ry rz rx
   end
   begin
      id 19
      name RightHand
      direction 0.000000 0.000000 0.000000
      length 0.000000
      axis 0.0 0.0 90.0 xyz
      dof rx ry rz
   end
   begin
      id 20
      name RightHand_dum1
      direction 0.000000 0.000000 0.000000
      length 0.000000
      axis 0.0 0.0 90.0 xyz
   end
   begin
      id 21
      name RightHand_dum2
      direction -1.000000 0.000000 0.000000
      length 3.937000
      axis 0.0 0.0 90.0 xyz
   end
   begin
      id 22
      name RightHandThumb1
      direction 0.000000 0.000000 1.000000
      length 3.937000
      axis 0.0 0.0 90.0 xyz
      dof rx rz ry
   end
   begin
      id 23
      name LeftUpLeg
      direction 0.000000 -1.000000 0.000000
      length 16.346831
      axis 0.0 0.0 0.0 xyz
      dof rx ry rz
   end
   begin
      id 24
      name LeftLeg
      direction 0.000000 -1.000000 0.000000
      length 13.959795
      axis 0.0 0.0 0.0 xyz
      dof rx ry rz
   end
   begin
      id 25
      name LeftFoot
      direction 0.000000 -0.258819 0.965926
      length 5.165550
      axis 15.0 0.0 0.0 xyz
      dof rx ry rz
   end
   begin
      id 26
      name LeftToeBase
      direction 0.000000 0.000000 1.000000
      length 2.952750
      axis 0.0 0.0 0.0 xyz
      dof rx ry rz
   end
   begin
      id 27
      name RightUpLeg
      direction 0.000000 -1.000000 0.000000
      length 16.346831
      axis 0.0 0.0 0.0 xyz
      dof rx ry rz
   end
   begin
      id 28
      name RightLeg
      direction 0.000000 -1.000000 0.000000
      length 13.959795
      axis 0.0 0.0 0.0 xyz
      dof rx ry rz
   end
   begin
      id 29
      name RightFoot
      direction 0.000000 -0.258819 0.965926
      length 5.165550
      axis 15.0 0.0 0.0 xyz
      dof rx ry rz
   end
   begin
      id 30
      name RightToeBase
      direction 0.000000 0.000000 1.000000
      length 2.952750
      axis 0.0 0.0 0.0 xyz
      dof rx ry rz
   end
:hierarchy
   begin
      root Spine_dum LeftUpLeg_dum RightUpLeg_dum
      Spine_dum Spine
      LeftUpLeg_dum LeftUpLeg
      RightUpLeg_dum RightUpLeg
      Spine Spine_dum1 Spine_dum2 Spine_dum3
      Spine_dum1 Head
      Spine_dum2 LeftShoulder
      Spine_dum3 RightShoulder
      LeftShoulder LeftArm
      LeftArm LeftForeArm
      LeftForeArm LeftHand
      LeftHand LeftHand_dum1 LeftHand_dum2
      LeftHand_dum1 LeftHandThumb1
      RightShoulder RightArm
      RightArm RightForeArm
      RightForeArm RightHand
      RightHand RightHand_dum1 RightHand_dum2
      RightHand_dum1 RightHandThumb1
      LeftUpLeg LeftLeg
      LeftLeg LeftFoot
      LeftFoot LeftToeBase
      RightUpLeg RightLeg
      RightLeg RightFoot
      RightFoot RightToeBase
   end

# File created by Blade
# Date/Time:  Tue Jan 27 18:35:03 2015
# Frame Rate: 120.000 fps
#------------------------------------------------------
:FULLY-SPECIFIED
:DEGREES
674
root -3.905692 31.194837 -1.956869 -14.558793 28.939352 -11.872384
Spine 17.509614 -11.490245 -0.618745
Head 6.793691 0.509936 16.668893
LeftShoulder -11.531871 10.511177 22.234227
LeftArm 34.064656 -15.075966 -58.646502
LeftForeArm 131.331409 -0.000000 123.536329
LeftHand 4.776288 -0.000000 -10.270745
LeftHandThumb1 -26.253704 0.000000 33.147579
RightShoulder -13.912225 -3.524119 -6.471910
RightArm 15.875123 -41.338978 71.804125
RightForeArm -24.520869 -0.000000 30.368474
RightHand -14.630051 -0.000000 11.431932
RightHandThumb1 -24.326973 -0.000000 -32.862282
LeftUpLeg -6.494203 0.448410 5.221691
LeftLeg 39.647013 -0.000000 -0.000000
LeftFoot -27.638026 -2.430192 -14.590041
LeftToeBase 12.824742 -0.000000 -0.000000
RightUpLeg -87.838914 5.799917 23.908933
RightLeg 42.014300 -0.000000 -0.000000
RightFoot -4.378248 6.675834 33.449956
RightToeBase 1.886762 -0.000000 -0.000000
675
root -3.901301 31.201545 -1.970482 -14.461334 28.987347 -11.860555
Spine 17.471701 -11.577045 -0.640520
Head 6.701347 0.491508 16.577238
LeftShoulder -11.555237 10.521903 22.121152
LeftArm 33.999228 -15.162644 -59.119349
LeftForeArm 131.219531 0.000000 123.457160
LeftHand 4.672079 0.000000 -10.095903
LeftHandThumb1 -26.253704 0.000000 33.147579
RightShoulder -13.985098 -3.608857 -6.498402
RightArm 15.805696 -41.397802 71.813062
RightForeArm -24.575825 -0.000000 30.518904
RightHand -14.754242 -0.000000 11.516458
RightHandThumb1 -24.326973 -0.000000 -32.862282
LeftUpLeg -6.584372 0.507689 5.209218
LeftLeg 39.597750 -0.000000 -0.000000
LeftFoot -27.543067 -2.561877 -14.630357
LeftToeBase 12.913449 -0.000000 -0.000000
RightUpLeg -87.826137 5.704728 23.990302
RightLeg 42.068417 -0.000000 -0.000000
RightFoot -4.373893 6.629420 33.426934
RightToeBase 1.830227 -0.000000 -0.000000
676
root -3.895954 31.206991 -1.985120 -14.361637 29.033727 -11.849438
Spine 17.427502 -11.675679 -0.658693
Head 6.632818 0.498239 16.469962
LeftShoulder -11.604874 10.573513 21.999951
LeftArm 33.985122 -15.241115 -59.610764
LeftForeArm 131.210757 -0.000000 123.376369
LeftHand 4.564465 -0.000000 -10.191075
LeftHandThumb1 -26.253704 0.000000 33.147579
RightShoulder -14.022647 -3.665756 -6.536265
RightArm 15.805003 -41.580336 71.750095
RightForeArm -24.538090 -0.000000 30.530729
RightHand -14.723639 0.000000 11.534665
RightHandThumb1 -24.326973 -0.000000 -32.862282
LeftUpLeg -6.677240 0.503288 5.184090
LeftLeg 39.530651 -0.000000 -0.000000
LeftFoot -27.438883 -2.635948 -14.637059
LeftToeBase 12.836206 -0.000000 -0.000000
RightUpLeg -87.805619 5.614748 24.063693
RightLeg 42.073410 -0.000000 -0.000000
RightFoot -4.354523 6.564678 33.271033
RightToeBase 1.815625 -0.000000 -0.000000
677
root -3.887817 31.212008 -2.002610 -14.220706 29.083845 -11.782440
Spine 17.363981 -11.761129 -0.725070
Head 6.578221 0.504711 16.365601
LeftShoulder -11.635735 10.572380 21.875226
LeftArm 33.940850 -15.325353 -60.094104
LeftForeArm 131.147496 -0.000000 123.321038
LeftHand 4.543662 -0.000000 -10.068139
LeftHandThumb1 -26.253704 0.000000 33.147579
RightShoulder -14.036071 -3.751667 -6.597903
RightArm 15.647657 -41.644300 71.818382
RightForeArm -24.535246 -0.000000 30.672990
RightHand -14.720593 -0.000000 11.633062
RightHandThumb1 -24.326973 -0.000000 -32.862282
LeftUpLeg -6.776783 0.374831 5.057167
LeftLeg 39.433618 -0.000000 -0.000000
LeftFoot -27.379350 -2.455836 -14.589006
LeftToeBase 12.915824 -0.000000 -0.000000
RightUpLeg -87.807255 5.529756 24.022521
RightLeg 42.049386 -0.000000 -0.000000
RightFoot -4.377059 6.624004 33.952826
RightToeBase 3.212680 -0.000000 -0.000000
678
root -3.883371 31.215119 -2.015645 -14.136671 29.103349 -11.768640
Spine 17.330099 -11.836432 -0.720220
Head 6.521182 0.539593 16.187090
LeftShoulder -11.509141 10.100230 21.941738
LeftArm 33.256906 -15.280344 -60.514461
LeftForeArm 131.247488 -0.000000 123.370777
LeftHand 4.629749 0.000000 -10.152463
LeftHandThumb1 -26.253704 0.000000 33.147579
RightShoulder -14.060546 -3.821724 -6.732902
RightArm 15.595251 -41.832367 71.886432
RightForeArm -24.489087 -0.000000 30.622860
RightHand -14.704500 -0.000000 11.605943
RightHandThumb1 -24.326973 -0.000000 -32.862282
LeftUpLeg -6.849149 0.319283 5.001623
LeftLeg 39.372259 -0.000000 -0.000000
LeftFoot -27.354175 -2.305579 -14.513704
LeftToeBase 12.881363 -0.000000 -0.000000
RightUpLeg -87.753440 5.479436 24.038917
RightLeg 41.980295 -0.000000 -0.000000
RightFoot -4.317974 6.571638 33.811302
RightToeBase 3.679991 -0.000000 -0.000000
679
root -3.880079 31.219997 -2.029739 -14.044515 29.093924 -11.801769
Spine 17.262449 -11.890270 -0.661850
Head 6.477941 0.572244 16.033204
LeftShoulder -11.527217 9.974401 21.819019
LeftArm 33.117093 -15.334562 -60.905602
LeftForeArm 131.306833 -0.000000 123.319403
LeftHand 4.555231 -0.000000 -9.900701
LeftHandThumb1 -26.253704 0.000000 33.147579
RightShoulder -14.060564 -3.895558 -6.846799
RightArm 15.495074 -41.960597 71.949278
RightForeArm -24.574729 0.000000 30.612799
RightHand -14.585578 -0.000000 11.736211
RightHandThumb1 -24.326973 -0.000000 -32.862282
LeftUpLeg -6.952554 0.266434 4.995290
LeftLeg 39.315512 -0.000000 -0.000000
LeftFoot -27.328476 -2.198446 -14.487873
LeftToeBase 12.834419 -0.000000 -0.000000
RightUpLeg -87.701361 5.460291 24.077832
RightLeg 41.866868 -0.000000 -0.000000
RightFoot -4.146961 6.564255 33.745815
RightToeBase 3.759390 -0.000000 -0.000000
680
root -3.875446 31.224167 -2.041183 -13.968023 29.079440 -11.818453
Spine 17.219039 -11.927428 -0.631603
Head 6.429951 0.575577 15.901202
LeftShoulder -11.617980 9.981120 21.695640
LeftArm 33.189932 -15.378830 -61.326319
LeftForeArm 131.304868 -0.000000 123.222606
LeftHand 4.549230 0.000000 -9.773202
LeftHandThumb1 -26.253704 0.000000 33.147579
RightShoulder -14.055460 -3.991519 -6.954370
RightArm 15.392126 -42.086202 72.005530
RightForeArm -24.620970 0.000000 30.630673
RightHand -14.543549 -0.000000 11.861609
RightHandThumb1 -24.326973 -0.000000 -32.862282
LeftUpLeg -7.016645 0.215096 4.970109
LeftLeg 39.256432 -0.000000 -0.000000
LeftFoot -27.327791 -2.083180 -14.522765
LeftToeBase 12.817427 -0.000000 -0.000000
RightUpLeg -87.635114 5.453999 24.074675
RightLeg 41.770017 -0.000000 -0.000000
RightFoot -4.020689 6.599712 33.760230
RightToeBase 3.886913 -0.000000 -0.000000
681
root -3.867711 31.227146 -2.050853 -13.896677 29.057245 -11.776944
Spine 17.206324 -11.920329 -0.663101
Head 6.393742 0.557555 15.790504
LeftShoulder -11.669470 9.977547 21.603210
LeftArm 33.244697 -15.434223 -61.691782
LeftForeArm 131.267218 -0.000000 123.166783
LeftHand 4.597828 -0.000000 -9.653302
LeftHandThumb1 -26.253704 0.000000 33.147579
RightShoulder -14.060316 -4.103215 -7.036137
RightArm 15.425237 -42.337053 71.937150
RightForeArm -24.543609 0.000000 30.523025
RightHand -14.516944 -0.000000 11.985396
RightHandThumb1 -24.326973 -0.000000 -32.862282
LeftUpLeg -7.032569 0.145307 4.897867
LeftLeg 39.175699 -0.000000 -0.000000
LeftFoot -27.306761 -1.972461 -14.532115
LeftToeBase 12.798710 -0.000000 -0.000000
RightUpLeg -87.544481 5.465817 23.972439
RightLeg 41.703660 -0.000000 -0.000000
RightFoot -3.831962 6.725557 34.112084
RightToeBase 3.603296 -0.000000 -0.000000
682
root -3.870980 31.235509 -2.055439 -13.885496 28.996558 -11.819511
Spine 17.229218 -11.867747 -0.655438
Head 6.353250 0.535229 15.767543
LeftShoulder -11.726646 9.999792 21.544224
LeftArm 33.375575 -15.463125 -62.018705
LeftForeArm 131.274900 -0.000000 123.109772
LeftHand 4.598448 -0.000000 -9.447447
LeftHandThumb1 -26.253704 0.000000 33.147579
RightShoulder -14.072413 -4.201786 -7.065357
RightArm 15.361402 -42.508206 71.937141
RightForeArm -24.595000 0.000000 30.475660
RightHand -14.564167 0.000000 12.036527
RightHandThumb1 -24.326973 -0.000000 -32.862282
LeftUpLeg -7.039973 0.130184 4.952588
LeftLeg 39.111291 -0.000000 -0.000000
LeftFoot -27.247228 -1.960210 -14.493354
LeftToeBase 12.728703 -0.000000 -0.000000
RightUpLeg -87.382891 5.507087 23.980656
RightLeg 41.592231 -0.000000 -0.000000
RightFoot -3.767137 6.832647 33.968333
RightToeBase 3.366312 -0.000000 -0.000000
683
root -3.867437 31.241684 -2.062352 -13.847211 28.951370 -11.817205
Spine 17.237175 -11.826561 -0.673698
Head 6.341325 0.530729 15.709789
LeftShoulder -11.749793 10.005206 21.498876
LeftArm 33.443781 -15.488907 -62.299574
LeftForeArm 131.367701 0.000000 123.106718
LeftHand 4.579787 -0.000000 -9.422199
LeftHandThumb1 -26.253704 0.000000 33.147579
RightShoulder -14.071175 -4.272556 -7.103533
RightArm 15.276520 -42.711730 71.922633
RightForeArm -24.644986 0.000000 30.399793
RightHand -14.476098 0.000000 12.174523
RightHandThumb1 -24.326973 -0.000000 -32.862282
LeftUpLeg -7.035243 0.055886 4.934781
LeftLeg 39.026691 -0.000000 -0.000000
LeftFoot -27.234259 -1.881376 -14.538363
LeftToeBase 12.759580 -0.000000 -0.000000
RightUpLeg -87.270376 5.544699 23.950920
RightLeg 41.586843 -0.000000 -0.000000
RightFoot -3.803740 6.935999 33.659391
RightToeBase 3.440803 -0.000000 -0.000000
684
root -3.864780 31.248269 -2.070365 -13.794797 28.888379 -11.822895
Spine 17.223688 -11.786532 -0.679097
Head 6.338538 0.520556 15.640246
LeftShoulder -11.756409 10.046729 21.460571
LeftArm 33.512721 -15.542671 -62.535675
LeftForeArm 131.544834 -0.000000 123.137123
LeftHand 4.585722 -0.000000 -9.409812
LeftHandThumb1 -26.253704 0.000000 33.147579
RightShoulder -14.037554 -4.336232 -7.135259
RightArm 15.221160 -42.915181 71.881978
RightForeArm -24.634776 0.000000 30.260967
RightHand -14.414968 -0.000000 12.315086
RightHandThumb1 -24.326973 -0.000000 -32.862282
LeftUpLeg -7.038755 -0.046221 4.911822
LeftLeg 38.920144 -0.000000 -0.000000
LeftFoot -27.241564 -1.697265 -14.553760
LeftToeBase 12.768661 -0.000000 -0.000000
RightUpLeg -87.175862 5.601958 23.940612
RightLeg 41.614030 -0.000000 -0.000000
RightFoot -3.849841 6.907551 33.532986
RightToeBase 3.735999 -0.000000 -0.000000
